<?xml version="1.0" encoding="UTF-8"?>
<svg width="28px" height="28px" viewBox="0 0 28 28" version="1.1" xmlns="http://www.w3.org/2000/svg" xmlns:xlink="http://www.w3.org/1999/xlink">
    <!-- Generator: Sketch 52.4 (67378) - http://www.bohemiancoding.com/sketch -->
    <title>social_Instagram_32</title>
    <desc>Created with Sketch.</desc>
    <g id="Zzao" stroke="none" stroke-width="1" fill="none" fill-rule="evenodd">
        <g id="Home" transform="translate(-930.000000, -1245.000000)">
            <g id="Icon-/-Social-/-Instagram-/-28" transform="translate(928.000000, 1243.000000)">
                <g id="social_Instagram_32">
                    <rect id="Bound" fill-rule="nonzero" x="0" y="0" width="32" height="32"></rect>
                    <path d="M15.9956111,2.00883333 C19.7965556,2.00883333 20.2731667,2.02494444 21.7659444,2.09305556 C23.2556111,2.161 24.273,2.39761111 25.1632222,2.74361111 C26.0835556,3.10122222 26.8640556,3.57977778 27.6421667,4.35783333 C28.4202222,5.13594444 28.8987778,5.91644444 29.2564444,6.83677778 C29.6023889,7.727 29.839,8.74438889 29.9069444,10.2340556 C29.9750556,11.7268333 29.9911667,12.2034444 29.9911667,16.0044444 C29.9911667,19.8053889 29.9750556,20.282 29.9069444,21.7747778 C29.839,23.2644444 29.6023889,24.2818333 29.2564444,25.1720556 C28.8987778,26.0923889 28.4202222,26.8728889 27.6421667,27.651 C26.8640556,28.4290556 26.0835556,28.9076111 25.1632222,29.2652778 C24.273,29.6112222 23.2556111,29.8478333 21.7659444,29.9157778 C20.2731667,29.9838889 19.7965556,30 15.9956111,30 C12.1946111,30 11.718,29.9838889 10.2252222,29.9157778 C8.73555556,29.8478333 7.71816667,29.6112222 6.82794444,29.2652778 C5.90761111,28.9076111 5.12711111,28.4290556 4.349,27.651 C3.57094444,26.8728889 3.09238889,26.0923889 2.73477778,25.1720556 C2.38877778,24.2818333 2.15216667,23.2644444 2.08422222,21.7747778 C2.01611111,20.282 2,19.8053889 2,16.0044444 C2,12.2034444 2.01611111,11.7268333 2.08422222,10.2340556 C2.15216667,8.74438889 2.38877778,7.727 2.73477778,6.83677778 C3.09238889,5.91644444 3.57094444,5.13594444 4.349,4.35783333 C5.12711111,3.57977778 5.90761111,3.10122222 6.82794444,2.74361111 C7.71816667,2.39761111 8.73555556,2.161 10.2252222,2.09305556 C11.718,2.02494444 12.1946111,2.00883333 15.9956111,2.00883333 Z M15.9956111,4.53055556 C12.2586111,4.53055556 11.8159444,4.54483333 10.3401667,4.61216667 C8.97561111,4.67438889 8.23455556,4.90238889 7.74138889,5.09405556 C7.08811111,5.34794444 6.62188889,5.65122222 6.13216667,6.141 C5.64238889,6.63072222 5.33911111,7.09694444 5.08522222,7.75022222 C4.89355556,8.24338889 4.66555556,8.98444444 4.60333333,10.349 C4.536,11.8247778 4.52172222,12.2674444 4.52172222,16.0044444 C4.52172222,19.7413889 4.536,20.1840556 4.60333333,21.6598333 C4.66555556,23.0243889 4.89355556,23.7654444 5.08522222,24.2586111 C5.33911111,24.9118889 5.64244444,25.3781111 6.13216667,25.8678333 C6.62188889,26.3576111 7.08811111,26.6608889 7.74138889,26.9147778 C8.23455556,27.1064444 8.97561111,27.3344444 10.3401667,27.3966667 C11.8157778,27.464 12.2583333,27.4782778 15.9956111,27.4782778 C19.7328333,27.4782778 20.1754444,27.464 21.651,27.3966667 C23.0155556,27.3344444 23.7566111,27.1064444 24.2497778,26.9147778 C24.9030556,26.6608889 25.3692778,26.3576111 25.859,25.8678333 C26.3487778,25.3781111 26.6520556,24.9118889 26.9059444,24.2586111 C27.0976111,23.7654444 27.3256111,23.0243889 27.3878333,21.6598333 C27.4551667,20.1840556 27.4694444,19.7413889 27.4694444,16.0044444 C27.4694444,12.2674444 27.4551667,11.8247778 27.3878333,10.349 C27.3256111,8.98444444 27.0976111,8.24338889 26.9059444,7.75022222 C26.6520556,7.09694444 26.3487778,6.63072222 25.859,6.141 C25.3692778,5.65122222 24.9030556,5.34794444 24.2497778,5.09405556 C23.7566111,4.90238889 23.0155556,4.67438889 21.651,4.61216667 C20.1752222,4.54483333 19.7325556,4.53055556 15.9956111,4.53055556 Z M15.9956111,8.8175 C19.9648333,8.8175 23.1825,12.0351667 23.1825,16.0044444 C23.1825,19.9736667 19.9648333,23.1913333 15.9956111,23.1913333 C12.0263333,23.1913333 8.80866667,19.9736667 8.80866667,16.0044444 C8.80866667,12.0351667 12.0263333,8.8175 15.9956111,8.8175 Z M15.9956111,20.6696111 C18.5721111,20.6696111 20.6607778,18.5809444 20.6607778,16.0044444 C20.6607778,13.4278889 18.5721111,11.3392222 15.9956111,11.3392222 C13.4190556,11.3392222 11.3303889,13.4278889 11.3303889,16.0044444 C11.3303889,18.5809444 13.4190556,20.6696111 15.9956111,20.6696111 Z M25.1459444,8.53355556 C25.1459444,9.46111111 24.394,10.213 23.4664444,10.213 C22.5389444,10.213 21.787,9.46111111 21.787,8.53355556 C21.787,7.606 22.5389444,6.85405556 23.4664444,6.85405556 C24.394,6.85405556 25.1459444,7.606 25.1459444,8.53355556 Z" id="Combined-Shape" fill="#030303"></path>
                </g>
            </g>
        </g>
    </g>
</svg>