<?xml version="1.0" encoding="UTF-8"?>
<svg width="32px" height="32px" viewBox="0 0 32 32" version="1.1" xmlns="http://www.w3.org/2000/svg" xmlns:xlink="http://www.w3.org/1999/xlink">
    <!-- Generator: Sketch 52.4 (67378) - http://www.bohemiancoding.com/sketch -->
    <title>social_dribbble</title>
    <desc>Created with Sketch.</desc>
    <g id="Zzao" stroke="none" stroke-width="1" fill="none" fill-rule="evenodd">
        <g id="Home" transform="translate(-1192.000000, -1317.000000)" fill-rule="nonzero">
            <g id="footer" transform="translate(0.000000, 1192.000000)">
                <g id="social_dribbble" transform="translate(1192.000000, 125.000000)">
                    <rect id="Bound" x="0" y="0" width="32" height="32"></rect>
                    <path d="M24.5855578,28.3290855 C24.4238272,27.4127797 23.669252,23.0465563 21.7825626,17.6562068 C26.3103825,16.9015646 30.299268,18.1412981 30.7844262,18.3030287 C30.1915146,22.4536447 27.8736777,26.0650918 24.5855243,28.329052 L24.5855578,28.3290855 Z M16.500067,30.9164733 C13.1580034,30.9164733 10.0855913,29.730583 7.6059903,27.7361738 C7.87547427,27.1970719 10.7862898,21.3216981 18.979601,18.4109161 C19.0335112,18.4109161 19.0335112,18.4109161 19.0874549,18.3570059 C21.1357743,23.8012991 21.9443267,28.3830292 22.1599005,29.6767734 C20.4349417,30.4853258 18.4944762,30.9165739 16.5000335,30.9165739 L16.500067,30.9164733 Z M2,15.9313486 L2,15.500134 C2.64682184,15.500134 9.65427621,15.6079879 16.8773714,13.3979379 C17.3085859,14.2604005 17.6859238,15.0689195 18.0632617,15.9314491 C17.8476879,15.9853593 17.6858903,16.039303 17.47035,16.0931797 C9.9778044,18.5727137 6.04282915,25.3645943 5.66555829,25.9575394 C3.45547478,23.2623311 2.00013402,19.7586375 2.00013402,15.9315161 L2,15.9313486 Z M10.3550082,2.40153108 C10.7323796,2.94063304 13.319734,6.6599005 15.7453578,11.0261238 C8.95354418,12.8588695 2.97024951,12.8588695 2.32342767,12.8588695 C3.23973348,8.22319568 6.31234663,4.39600731 10.3550753,2.40156459 L10.3550082,2.40153108 Z M16.500067,1 C20.1654913,1 23.5613981,2.40146407 26.0948758,4.77327817 C25.8253918,5.15064954 23.6692185,8.16925197 18.4944762,10.1636277 C16.1227291,5.68961748 13.4814311,1.97031652 13.1041267,1.43128157 C14.1821296,1.1617976 15.3142102,1.00006701 16.5001005,1.00006701 L16.500067,1 Z M27.7118801,6.49820342 C29.7062893,9.0317146 30.9460563,12.2658908 31,15.8234612 C30.5149087,15.7156073 25.7174709,14.6914476 20.920033,15.3383699 C20.8121791,15.068886 20.7044592,14.799268 20.5966053,14.5837277 C20.2731777,13.8290855 19.9497835,13.1283534 19.6263223,12.4275544 C25.0166718,10.1097175 27.4423626,6.92941798 27.7118801,6.49820342 Z" id="Shape" fill="#000000"></path>
                </g>
            </g>
        </g>
    </g>
</svg>