<?xml version="1.0" encoding="UTF-8"?>
<svg width="32px" height="32px" viewBox="0 0 32 32" version="1.1" xmlns="http://www.w3.org/2000/svg" xmlns:xlink="http://www.w3.org/1999/xlink">
    <!-- Generator: Sketch 52.4 (67378) - http://www.bohemiancoding.com/sketch -->
    <title>Bound</title>
    <desc>Created with Sketch.</desc>
    <g id="Zzao" stroke="none" stroke-width="1" fill="none" fill-rule="evenodd">
        <g id="Home" transform="translate(-976.000000, -1317.000000)">
            <g id="footer" transform="translate(0.000000, 1192.000000)">
                <g id="social_twitter" transform="translate(976.000000, 125.000000)">
                    <rect id="Bound" fill-rule="nonzero" x="0" y="0" width="32" height="32"></rect>
                    <path d="M32,6.08698124 C31.0934243,7.41349251 29.996968,8.54368012 28.710631,9.47754406 C28.7242752,9.66704567 28.7310972,9.95129809 28.7310972,10.3303013 C28.7310972,12.0896343 28.473754,13.8459352 27.9590677,15.5992041 C27.4443813,17.352473 26.6624976,19.0341103 25.6134167,20.644116 C24.5643358,22.2541217 23.3155202,23.6787948 21.8669699,24.9181353 C20.4184196,26.1574758 18.6723517,27.1455372 16.6287663,27.8823195 C14.585181,28.6191018 12.3990904,28.9878719 10.0704946,28.9886299 C6.40250142,28.9886299 3.04566989,28.0073906 0,26.0449119 C0.473754027,26.0987303 1.00170551,26.1256396 1.58385446,26.1256396 C4.62952435,26.1256396 7.34356642,25.1917756 9.72598067,23.3240478 C8.30471859,23.2967595 7.03240478,22.8601478 5.90903923,22.0142126 C4.78567368,21.1682774 4.01402312,20.0888763 3.59408755,18.7760091 C4.04055334,18.8434717 4.45328785,18.877203 4.83229107,18.877203 C5.41444002,18.877203 5.98976691,18.8029183 6.55827175,18.6543491 C5.04225886,18.3428084 3.78662119,17.588213 2.79135873,16.3905628 C1.79609627,15.1929126 1.29846504,13.8019708 1.29846504,12.2177374 L1.29846504,12.1370097 C2.21868486,12.651696 3.20674626,12.9291264 4.26264923,12.9693007 C3.36895964,12.3735077 2.6583286,11.5950351 2.13075611,10.6338829 C1.60318363,9.67273072 1.33939738,8.63047186 1.33939738,7.50710631 C1.33939738,6.31627819 1.63729392,5.21299981 2.23308698,4.19727118 C3.8711389,6.21432632 5.86431685,7.82850104 8.21262081,9.03979534 C10.5609248,10.2510896 13.0752321,10.9245784 15.7555429,11.0602615 C15.647148,10.5455751 15.5929505,10.0449119 15.5929505,9.55827175 C15.5929505,7.74436233 16.232708,6.19802918 17.5122229,4.91927231 C18.7917377,3.64051544 20.3380709,3.00075801 22.1512223,3 C24.0462384,3 25.643358,3.69016487 26.942581,5.0704946 C28.4176616,4.78624218 29.8051923,4.2582907 31.1051734,3.48664014 C30.6041311,5.04358537 29.642979,6.24843661 28.2217169,7.10119386 C29.4807656,6.96551071 30.7394353,6.62706083 31.997726,6.08584423 L32,6.08698124 Z" id="Path" fill="#000000"></path>
                </g>
            </g>
        </g>
    </g>
</svg>