<?xml version="1.0" encoding="UTF-8"?>
<svg width="419px" height="98px" viewBox="0 0 419 98" version="1.1" xmlns="http://www.w3.org/2000/svg" xmlns:xlink="http://www.w3.org/1999/xlink">
    <!-- Generator: Sketch 52.5 (67469) - http://www.bohemiancoding.com/sketch -->
    <title>blog</title>
    <desc>Created with Sketch.</desc>
    <defs>
        <linearGradient x1="26.2485398%" y1="14.2475658%" x2="87.5078713%" y2="82.3552444%" id="linearGradient-1">
            <stop stop-color="#0618CF" offset="0%"></stop>
            <stop stop-color="#101FD0" offset="100%"></stop>
        </linearGradient>
        <linearGradient x1="16.6842663%" y1="49.790685%" x2="98.7114159%" y2="34.2609565%" id="linearGradient-2">
            <stop stop-color="#EDEDED" offset="0%"></stop>
            <stop stop-color="#F3F3F3" offset="100%"></stop>
        </linearGradient>
    </defs>
    <g id="Zzao" stroke="none" stroke-width="1" fill="none" fill-rule="evenodd">
        <g id="Artboard" transform="translate(-200.000000, -939.000000)">
            <g id="greeting-copy" transform="translate(200.000000, 938.000000)">
                <rect id="Rectangle" fill-rule="nonzero" x="0" y="0" width="420" height="98"></rect>
                <path d="M47,73.126 L47,62.388 L63.933,42.564 L47.708,42.564 L47.708,31.826 L79.155,31.826 L79.155,42.564 L62.222,62.388 L79.568,62.388 L79.568,73.126 L47,73.126 Z M84.642,73.126 L84.642,62.388 L101.575,42.564 L85.35,42.564 L85.35,31.826 L116.797,31.826 L116.797,42.564 L99.864,62.388 L117.21,62.388 L117.21,73.126 L84.642,73.126 Z M135.854,73.126 L135.854,31.826 L157.271,31.826 C165,31.826 169.543,36.31 169.543,42.505 C169.543,46.694 167.537,50.116 164.115,51.768 C169.071,52.889 172.08,56.252 172.08,61.385 C172.08,68.347 167.006,73.126 157.566,73.126 L135.854,73.126 Z M148.48,63.391 L156.504,63.391 C158.392,63.391 159.513,61.975 159.513,60.146 C159.513,58.435 158.333,56.96 156.445,56.96 L148.48,56.96 L148.48,63.391 Z M148.48,47.697 L154.026,47.697 C155.914,47.697 156.917,46.34 156.917,44.511 C156.917,42.859 155.796,41.561 154.026,41.561 L148.48,41.561 L148.48,47.697 Z M176.8,73.126 L176.8,31.826 L189.721,31.826 L189.721,62.388 L206.477,62.388 L206.477,73.126 L176.8,73.126 Z M228.72,73.952 C215.799,73.952 209.014,66.282 209.014,55.072 L209.014,49.88 C209.014,38.67 215.799,31 228.72,31 C241.641,31 248.426,38.67 248.426,49.88 L248.426,55.072 C248.426,66.282 241.641,73.952 228.72,73.952 Z M228.72,63.214 C233.086,63.214 235.505,60.618 235.505,55.839 L235.505,49.113 C235.505,44.334 233.086,41.738 228.72,41.738 C224.354,41.738 221.935,44.334 221.935,49.113 L221.935,55.839 C221.935,60.618 224.354,63.214 228.72,63.214 Z M290.788,46.458 L278.516,46.458 C277.867,43.98 276.097,41.679 272.144,41.679 C267.365,41.679 265.241,44.57 265.241,49.349 L265.241,55.78 C265.241,60.618 267.247,64.099 272.38,64.099 C276.156,64.099 278.162,62.211 278.811,59.969 L272.203,59.969 L272.203,50.234 L291.201,50.234 L291.201,56.37 C291.201,66.872 283.472,73.952 271.967,73.952 C259.872,73.952 252.32,66.577 252.32,55.131 L252.32,49.762 C252.32,37.608 260.344,31 271.849,31 C283.059,31 290.198,37.372 290.788,46.458 Z" id="Zz-Blog-Copy" fill-opacity="0.87" fill="#000000"></path>
                <circle id="Oval" fill="url(#linearGradient-1)" fill-rule="nonzero" cx="37" cy="48" r="36"></circle>
                <path d="M69.1708614,31.826 C71.6205158,36.6889282 73,42.1833662 73,48 C73,48.6113292 72.9847622,49.2190994 72.9546456,49.8229516 L62.222,62.388 L70.0097259,62.388 C68.2578726,66.4015661 65.7954751,70.0338866 62.7814946,73.126 L47,73.126 L47,62.388 L63.933,42.564 L47.708,42.564 L47.708,31.826 L69.1708614,31.826 Z" id="Combined-Shape" fill="#FFFFFF" fill-rule="nonzero"></path>
                <rect id="Rectangle" fill="url(#linearGradient-2)" fill-rule="nonzero" x="149" y="87" width="269.7733" height="7.40554156" rx="3.70277078"></rect>
            </g>
        </g>
    </g>
</svg>